- 
http://www.Speed.Cd
 
http://www.Speed.Cd       the fast  and The Hottest Private Tracker on the net

Please Seed back to make the speed Faster!!
 ............ NFO .............
-[IMG]http://i.imgur.com/6nmjvwT.jpg[/IMG]

Source: DVDR L-S
 
http://www.imdb.com/title/tt0404978/

An art curator decides to seek revenge on his abusive boss by conning him into buying a fake Monet, but his plan requires the help of an eccentric and unpredictable Texas rodeo queen

General
Complete name                            : Gambit 2012 DVDRip x264 AAC-OFFLiNE.mp4
Format                                   : MPEG-4
Format profile                           : Base Media
Codec ID                                 : isom
File size                                : 1.39 GiB
Duration                                 : 1h 25mn
Overall bit rate mode                    : Variable
Overall bit rate                         : 2 334 Kbps
Encoded date                             : UTC 2013-03-02 08:18:45
Tagged date                              : UTC 2013-03-02 08:18:45

Video
ID                                       : 1
Format                                   : AVC
Format/Info                              : Advanced Video Codec
Format profile                           : High@L4.1
Format settings, CABAC                   : Yes
Format settings, ReFrames                : 3 frames
Codec ID                                 : avc1
Codec ID/Info                            : Advanced Video Coding
Duration                                 : 1h 25mn
Bit rate mode                            : Variable
Bit rate                                 : 2 022 Kbps
Maximum bit rate                         : 40.0 Mbps
Width                                    : 720 pixels
Height                                   : 304 pixels
Display aspect ratio                     : 2.35:1
Frame rate mode                          : Constant
Frame rate                               : 25.000 fps
Color space                              : YUV
Chroma subsampling                       : 4:2:0
Bit depth                                : 8 bits
Scan type                                : Progressive
Bits/(Pixel*Frame)                       : 0.370
Stream size                              : 1.21 GiB (87%)
Writing library                          : x264 core 129 r2245 bc13772

Audio
ID                                       : 2
Format                                   : AAC
Format/Info                              : Advanced Audio Codec
Format profile                           : LC
Codec ID                                 : 40
Duration                                 : 1h 25mn
Bit rate mode                            : Variable
Bit rate                                 : 310 Kbps
Maximum bit rate                         : 395 Kbps
Channel(s)                               : 6 channels
Channel positions                        : Front: L C R, Side: L R, LFE
Sampling rate                            : 48.0 KHz
Compression mode                         : Lossy
Stream size                              : 189 MiB (13%)
Language                                 : English
Encoded date                             : UTC 2013-03-01 22:41:25
Tagged date                              : UTC 2013-03-02 08:19:22

[img]http://i.imgur.com/eiKA5Js.png[/img]
[img]http://i.imgur.com/YhqUL3Q.png[/img]
[img]http://i.imgur.com/w4jmMtn.png[/img]
[img]http://i.imgur.com/kNAAHI9.png[/img]
[img]http://i.imgur.com/cuFwXx8.png[/img]
[img]http://i.imgur.com/YsV2GA0.png[/img]

Greets: To Our Friends